<svg xmlns="http://www.w3.org/2000/svg" viewBox="0 0 851.915 163.203">
    <style>
        g path { fill: #17223f } @media (prefers-color-scheme:dark) { g path { fill: #fff } }
    </style>
    <path d="m660.687,12.141l.137.409c0-3.683,1.228-6.684,3.548-9.003,2.319-2.319,5.456-3.547,9.275-3.547,3.955,0,7.092,1.091,9.411,3.41,2.32,2.319,3.548,5.32,3.548,9.003,0,3.547-1.228,6.412-3.684,8.731-2.319,2.319-5.456,3.41-9.411,3.41-3.819,0-6.956-1.228-9.275-3.547-2.32-2.319-3.549-5.32-3.549-8.866Zm-507.135,55.1476h-.137c0,5.0532,1.639,9.2869,4.78,12.7013,3.142,3.4143,7.239,5.0531,12.292,5.0531s9.151-1.6388,12.292-5.0531c3.141-3.4144,4.779-7.6481,4.779-12.7013,0-5.3266-1.501-9.5596-4.643-12.7016-3.141-3.277-7.238-4.916-12.291-4.916s-9.151,1.639-12.292,4.916c-3.141,3.415-4.78,7.648-4.78,12.7016Zm11.483,36.1656l-.273.273c-9.692,0-17.609-3.4119-23.759-10.2356-6.138-6.6872-9.139-15.4216-9.139-25.9956,0-10.802,3.138-19.69,9.275-26.663,6.138-6.974,14.052-10.392,23.749-10.392,4.507,0,8.74.82,12.564,2.461,3.961,1.641,7.102,4.102,9.697,7.384V.41h20.732v101.2697h-19.504v-10.1184c-2.867,3.9653-6.281,6.9735-10.237,8.8905-3.959,2.0471-8.327,3.0024-13.105,3.0024Zm-75.9649-55.8312c-3.9578,0-7.3697.957-10.2356,3.008-2.866,2.051-4.9131,4.922-6.1414,8.339h32.6179c-1.092-3.554-3.003-6.288-5.8689-8.339-2.866-2.051-6.2778-3.008-10.372-3.008Zm.1364,39.1946l-.1364.4092c3.4118,0,6.4143-.6825,9.0073-1.9129,2.5926-1.23,4.5036-3.1433,6.0046-5.7311h20.062c-2.184,7.6389-6.414,13.641-12.556,17.8716-6.141,4.2275-13.6471,6.4094-22.5179,6.4094-10.7815,0-19.6524-3.4093-26.6126-10.364-6.9602-6.9555-10.372-15.7022-10.372-26.2131,0-10.2307,3.5483-18.9797,10.645-26.0727,7.0967-7.091,15.9675-10.637,26.476-10.637,10.7815,0,19.5155,3.273,26.2035,9.955,6.687,6.682,10.098,15.294,10.098,25.5277v6.2712h-53.6337c.9553,4.5101,2.8659,8.0634,6.0049,10.6601,2.8659,2.5966,6.6872,3.8266,11.3273,3.8266Zm-50.5925-36.7366h-.4095c-5.5967,0-9.9649,1.779-12.968,5.337-3.0031,3.559-4.5047,8.4861-4.5047,14.873v31.3887H0V32.215h19.777v11.873c2.1833-4.23,5.05-7.506,8.4626-9.955,3.4127-2.325,7.2348-3.419,11.4665-3.419.9555,0,1.6381,0,2.3206.137l1.9111.409v19.505c-1.5016-.411-2.5936-.411-3.2762-.548-.4095-.136-1.092-.136-2.0476-.136Z" style="fill:#db150c; fill-rule:evenodd;"/>
    <g>
        <path d="m807.414,101.6797l-20.732.4095V32.625h19.777v8.455c2.321-3.273,5.326-5.864,8.878-7.639,3.688-1.773,7.513-2.727,11.748-2.727,7.508,0,13.509,2.318,18.0099,6.955,4.501,4.774,6.82,10.911,6.82,18.537v45.4737h-20.732v-39.6197c0-3.948-.956-7.08-2.869-9.258-1.912-2.178-4.781-3.268-8.606-3.268s-6.83,1.09-9.016,3.404c-2.185,2.315-3.278,5.446-3.278,9.394v39.3477Zm-143.996.4095h20.7318V32.6078h-20.7318v69.4814Zm-44.237-71.6482l-.4091.682c8.597,0,15.42,2.046,20.47,6.002,5.049,3.956,7.915,9.548,8.461,16.778h-21.153c0-2.319-.682-4.092-2.054-5.323-1.228-1.229-3.276-1.776-6.142-1.776-2.321,0-4.232.41-5.597,1.23-1.365.819-2.048,2.048-2.048,3.55,0,1.639.546,2.868,1.775,3.687,1.365.956,3.686,1.639,6.962,2.322l5.611,1.229c8.87,1.912,15.145,4.507,18.554,7.9206,3.547,3.414,5.32,8.0571,5.32,13.6561,0,7.2378-2.592,12.9652-7.911,17.0559-5.319,4.0908-12.548,6.1361-21.702,6.1361-9.974,0-17.749-2.0453-23.068-6.2724-5.593-4.2271-8.457-10.3646-8.866-18.145h21.824c0,2.8647.819,5.0472,2.457,6.5523,1.501,1.5015,3.959,2.1841,7.235,2.1841,2.866,0,5.05-.5461,6.567-1.5016,1.503-.9556,2.323-2.4571,2.323-4.3682,0-1.7746-.547-3.1396-1.777-4.0952-1.229-.9555-3.279-1.7745-6.149-2.3206l-6.695-1.365c-8.052-1.6381-13.917-4.2317-17.599-7.6443-3.546-3.4128-5.319-7.9178-5.319-13.7868,0-6.689,2.7271-12.149,8.047-16.244,5.319-4.096,12.275-6.143,20.8831-6.143Zm-149.875,71.2387h20.7318V.5287h-20.7318v101.151Zm-210.773-54.0567c-3.957,0-7.369.957-10.235,3.008-2.866,2.051-4.913,4.922-6.142,8.339h32.618c-1.092-3.554-3.003-6.288-5.869-8.339-2.866-2.051-6.277-3.008-10.372-3.008Zm.137,39.1946l-.137.4092c3.412,0,6.415-.6825,9.008-1.9129,2.593-1.23,4.503-3.1433,6.004-5.7311h20.062c-2.183,7.6389-6.414,13.641-12.555,17.8716-6.142,4.2275-13.648,6.4094-22.519,6.4094-10.781,0-19.652-3.4093-26.612-10.364-6.96-6.9555-10.372-15.7022-10.372-26.2131,0-10.2307,3.548-18.9797,10.645-26.0727,7.096-7.091,15.967-10.637,26.476-10.637,10.781,0,19.516,3.273,26.203,9.955,6.687,6.682,10.099,15.294,10.099,25.5277v6.2712h-53.635c.956,4.5101,2.866,8.0634,6.005,10.6601,2.866,2.5966,6.688,3.8266,11.328,3.8266Zm493.886-19.2557v-.1366c-.03-4.9933-1.668-9.1803-4.9171-12.4283-3.277-3.277-7.375-4.916-12.428-4.916s-9.15,1.639-12.292,4.916c-3.141,3.415-4.78,7.512-4.78,12.4283s1.639,9.0138,4.78,12.4281c3.142,3.2778,7.239,4.9166,12.292,4.9166s9.151-1.6388,12.428-4.9166c3.249-3.2481,4.887-7.301,4.9171-12.2915Zm-54.875-.478c.046-10.4249,3.592-19.0939,10.6379-26.0049,6.9561-6.956,16.103-10.365,27.165-10.365s20.072,3.409,27.028,10.365c7.093,6.956,10.639,15.694,10.639,25.9366,0,10.5161-3.546,19.2545-10.639,26.21-6.956,6.9556-15.965,10.3651-27.028,10.3651-10.926,0-19.936-3.5459-27.165-10.5014-7.046-6.9103-10.592-15.5806-10.6379-26.0054Zm0,0c0,.0682-.001.1365-.001.2049v-.4098c0,.0684.001.1367.001.2049Zm-139.1.478v-.1366c-.029-4.9933-1.668-9.1803-4.916-12.4283-3.278-3.277-7.375-4.916-12.428-4.916s-9.151,1.639-12.292,4.916c-3.141,3.415-4.78,7.512-4.78,12.4283s1.639,9.0138,4.78,12.4281c3.141,3.2778,7.238,4.9166,12.292,4.9166s9.15-1.6388,12.428-4.9166c3.248-3.2481,4.887-7.301,4.916-12.2915Zm-54.875-.478c.046-10.4249,3.592-19.0939,10.638-26.0049,6.956-6.956,16.103-10.365,27.166-10.365s20.072,3.409,27.028,10.365c7.092,6.956,10.638,15.694,10.638,25.9366,0,10.5161-3.546,19.2545-10.638,26.21-6.9561,6.9556-15.966,10.3651-27.028,10.3651-10.926,0-19.937-3.5459-27.166-10.5014-7.046-6.9103-10.592-15.5806-10.638-26.0054Zm0,0v.2049-.4098.2049Z" style="fill-rule:evenodd;"/>
        <path d="m433.542,67.0243h-.137c0-5.0503-1.639-9.2823-4.78-12.7123-3.141-3.276-7.238-4.914-12.292-4.914s-9.15,1.638-12.291,4.914c-3.141,3.14-4.643,7.372-4.643,12.7123,0,5.0507,1.638,9.2824,4.779,12.695,3.141,3.2761,7.239,4.9142,12.292,4.9142s9.15-1.6381,12.292-4.9142c3.141-3.4126,4.78-7.6443,4.78-12.695Zm-54.056,63.7311l-.137-98.5404h19.777v9.965c2.594-3.685,6.008-6.689,10.106-8.737,3.96-2.047,8.331-3.002,13.111-3.002,9.696,0,17.61,3.411,23.748,10.235,6.137,6.687,9.138,15.422,9.138,26.2031,0,10.645-3.137,19.3794-9.275,26.3396-6.138,6.8237-14.051,10.2355-23.748,10.2355-4.507,0-8.604-.8188-12.292-2.4565-3.687-1.6377-6.965-4.0942-9.696-7.3696v37.1273h-20.732Zm-60.341-29.0757h-22.245l24.156-34.8005-23.201-34.6642h23.337l12.692,19.243,12.965-19.243h21.836l-23.337,33.9819,24.838,35.4828h-24.019l-13.511-19.7885-13.511,19.7885Z" style="fill-rule:evenodd;"/>
    </g>
    <path d="m380.959,163.203c-18.944-1.9962-33.727-18.0399-33.727-37.5092h18.859c0,9.0394,6.374,16.6019,14.868,18.4352v19.074Z" style="fill:#db150c; fill-rule:evenodd;"/>
</svg>
